<?xml version="1.0" encoding="iso-8859-1"?>
<!-- Uploaded to: SVG Repo, www.svgrepo.com, Generator: SVG Repo Mixer Tools -->
<svg height="800px" width="800px" version="1.1" id="Layer_1" xmlns="http://www.w3.org/2000/svg" xmlns:xlink="http://www.w3.org/1999/xlink" 
	 viewBox="0 0 512 512" xml:space="preserve">
<g>
	<path style="fill:#8697CB;" d="M298.667,443.733c-15.428,0-29.269-6.221-41.156-18.483
		c-58.368-60.211-52.966-255.121-52.71-263.381c0-18.56-15.309-33.869-34.133-33.869c-4.71,0-8.533-3.814-8.533-8.533
		c0-4.719,3.823-8.533,8.533-8.533c28.237,0,51.2,22.963,51.2,51.2c-0.068,2.219-5.461,196.198,47.898,251.238
		c8.67,8.943,18.125,13.295,28.902,13.295c10.778,0,20.233-4.352,28.902-13.295c53.359-55.04,47.966-249.02,47.898-250.974
		c0-28.501,22.963-51.465,51.2-51.465c4.71,0,8.533,3.814,8.533,8.533c0,4.719-3.823,8.533-8.533,8.533
		c-18.825,0-34.133,15.309-34.133,34.133c0.256,7.996,5.658,202.906-52.71,263.117C327.936,437.513,314.095,443.733,298.667,443.733
		"/>
	<path style="fill:#24AE5F;" d="M460.8,247.467H162.133c-4.71,0-8.533-3.814-8.533-8.533c0-4.719,3.823-8.533,8.533-8.533H460.8
		c4.71,0,8.533,3.814,8.533,8.533C469.333,243.652,465.51,247.467,460.8,247.467"/>
	<g>
		<path style="fill:#8697CB;" d="M469.333,170.667c-4.71,0-8.533-3.814-8.533-8.533c0-18.825-15.309-34.133-34.133-34.133
			c-4.71,0-8.533-3.814-8.533-8.533c0-4.719,3.823-8.533,8.533-8.533c28.237,0,51.2,22.963,51.2,51.2
			C477.867,166.852,474.044,170.667,469.333,170.667"/>
		<path style="fill:#8697CB;" d="M128,170.667c-4.71,0-8.533-3.814-8.533-8.533c0-28.237,22.963-51.2,51.2-51.2
			c4.71,0,8.533,3.814,8.533,8.533c0,4.719-3.823,8.533-8.533,8.533c-18.825,0-34.133,15.309-34.133,34.133
			C136.533,166.852,132.71,170.667,128,170.667"/>
	</g>
	<g>
		<path style="fill:#24AE5F;" d="M460.8,247.467c-2.185,0-4.369-0.836-6.033-2.5l-25.6-25.6c-3.337-3.337-3.337-8.73,0-12.066
			c3.337-3.337,8.73-3.337,12.066,0l25.6,25.6c3.337,3.337,3.337,8.73,0,12.066C465.169,246.63,462.985,247.467,460.8,247.467"/>
		<path style="fill:#24AE5F;" d="M435.2,273.067c-2.185,0-4.369-0.836-6.033-2.5c-3.337-3.337-3.337-8.73,0-12.066l25.6-25.6
			c3.337-3.337,8.73-3.337,12.066,0c3.337,3.337,3.337,8.73,0,12.066l-25.6,25.6C439.569,272.23,437.385,273.067,435.2,273.067"/>
	</g>
	<g>
		<path style="fill:#353E56;" d="M25.6,512c-4.71,0-8.533-3.814-8.533-8.533V8.533C17.067,3.814,20.89,0,25.6,0
			s8.533,3.814,8.533,8.533v494.933C34.133,508.186,30.31,512,25.6,512"/>
		<path style="fill:#353E56;" d="M503.467,494.933H8.533c-4.71,0-8.533-3.814-8.533-8.533s3.823-8.533,8.533-8.533h494.933
			c4.71,0,8.533,3.814,8.533,8.533S508.177,494.933,503.467,494.933"/>
	</g>
	<path style="fill:#C03A2B;" d="M76.8,247.467H59.733c-4.71,0-8.533-3.814-8.533-8.533c0-4.719,3.823-8.533,8.533-8.533H76.8
		c4.71,0,8.533,3.814,8.533,8.533C85.333,243.652,81.51,247.467,76.8,247.467"/>
	<path style="fill:#24AE5F;" d="M76.8,213.333H59.733c-4.71,0-8.533-3.814-8.533-8.533c0-4.719,3.823-8.533,8.533-8.533H76.8
		c4.71,0,8.533,3.814,8.533,8.533C85.333,209.519,81.51,213.333,76.8,213.333"/>
	<path style="fill:#F0C419;" d="M76.8,179.2H59.733c-4.71,0-8.533-3.814-8.533-8.533c0-4.719,3.823-8.533,8.533-8.533H76.8
		c4.71,0,8.533,3.814,8.533,8.533C85.333,175.386,81.51,179.2,76.8,179.2"/>
	<path style="fill:#4482C3;" d="M76.8,145.067H59.733c-4.71,0-8.533-3.814-8.533-8.533S55.023,128,59.733,128H76.8
		c4.71,0,8.533,3.814,8.533,8.533S81.51,145.067,76.8,145.067"/>
	<path style="fill:#24AE5F;" d="M76.8,110.933H59.733c-4.71,0-8.533-3.814-8.533-8.533c0-4.719,3.823-8.533,8.533-8.533H76.8
		c4.71,0,8.533,3.814,8.533,8.533C85.333,107.119,81.51,110.933,76.8,110.933"/>
	<path style="fill:#F0C419;" d="M76.8,76.8H59.733c-4.71,0-8.533-3.814-8.533-8.533c0-4.719,3.823-8.533,8.533-8.533H76.8
		c4.71,0,8.533,3.814,8.533,8.533C85.333,72.986,81.51,76.8,76.8,76.8"/>
	<path style="fill:#C03A2B;" d="M76.8,42.667H59.733c-4.71,0-8.533-3.814-8.533-8.533s3.823-8.533,8.533-8.533H76.8
		c4.71,0,8.533,3.814,8.533,8.533S81.51,42.667,76.8,42.667"/>
</g>
</svg>